<svg xmlns="http://www.w3.org/2000/svg" width="1440" height="1000" preserveAspectRatio="none"><g mask="url(&quot;#SvgjsMask1142&quot;)" fill="none" stroke="#2D3748" stroke-width="2"><path d="M-227.05 382c72 48.8 216 274.2 360 244 144-30.2 216-379 360-395s216 329 360 315 216-416.8 360-385c144 31.8 314.59 493.4 360 544 45.41 50.6-106.36-232.8-132.95-291"/><path d="M-497.56 812c72-95.2 216-481.2 360-476 144 5.2 216 509.8 360 502 144-7.8 216-538.8 360-541 144-2.2 216 494.8 360 530 144 35.2 260.48-296.8 360-354 99.51-57.2 110.05 54.4 137.56 68"/><path d="M-654.32 715c72-46.4 216-205.2 360-232 144-26.8 216 96.6 360 98 144 1.4 216-109.4 360-91 144 18.4 216 192 360 183s229.13-256.8 360-228c130.86 28.8 235.46 297.6 294.32 372"/><path d="M-161.07 295c72 56.8 216 257 360 284s216-136.2 360-149c144-12.8 216 96.2 360 85 144-11.2 216-184 360-141s327.78 348.4 360 356c32.21 7.6-159.14-254.4-198.93-318"/></g><defs><mask id="SvgjsMask1142"><path fill="#fff" d="M0 0h1440v1000H0z"/></mask></defs></svg>