<?xml version="1.0" encoding="UTF-8"?>
<svg width="86" height="58" version="1.1" viewBox="0 0 22.754 15.346" xmlns="http://www.w3.org/2000/svg">
 <g transform="translate(0,-271.6)" fill="#fafafa">
  <g style="paint-order:stroke fill markers" aria-label="NICE!">
   <path transform="translate(-1.3229 -4.7956)" d="m18.52 276.5a4.3622 4.3622 0 0 0-3.7383 2.1152 4.3622 4.3622 0 0 0-0.23047 0.01 4.3622 4.3622 0 0 0-0.26562-0.01h-0.33789a4.3622 4.3622 0 0 0-3.3652-1.5879h-1.0586a4.3622 4.3622 0 0 0-3.3652 1.5879h-0.33984a4.3622 4.3622 0 0 0-4.3613 4.3613v4.2344a4.3622 4.3622 0 0 0 4.3613 4.3613h1.0586a4.3622 4.3622 0 0 0 0.52539-0.0312 4.3622 4.3622 0 0 0 0.00586 0 4.3622 4.3622 0 0 0 0.52734 0.0312h1.0586a4.3622 4.3622 0 0 0 0.26367-0.01 4.3622 4.3622 0 0 0 0.26562 0.01h1.0586a4.3622 4.3622 0 0 0 0.26367-0.01 4.3622 4.3622 0 0 0 0.26562 0.01h3.1738a4.3622 4.3622 0 0 0 0.26367-0.01 4.3622 4.3622 0 0 0 0.26562 0.01h3.1758a4.3622 4.3622 0 0 0 0.26367-0.01 4.3622 4.3622 0 0 0 0.26562 0.01h1.0586a4.3622 4.3622 0 0 0 4.3613-4.3613v-1.0586a4.3622 4.3622 0 0 0-0.03125-0.52539 4.3622 4.3622 0 0 0 0-6e-3 4.3622 4.3622 0 0 0 0.03125-0.52734v-4.2324a4.3622 4.3622 0 0 0-4.3613-4.3612z" fill="#2d3748" style="paint-order:stroke fill markers"/>
   <path transform="translate(-1.3229 -4.7956)" d="m18.52 278.64a2.2188 2.2188 0 0 0-2.2168 2.1152h-1.4883a2.2188 2.2188 0 0 0-0.26758 0.0156 2.2188 2.2188 0 0 0-0.26172-0.0156h-1.5762a2.2188 2.2188 0 0 0-2.127-1.5879h-1.0586a2.2188 2.2188 0 0 0-2.125 1.5879h-1.5801a2.2188 2.2188 0 0 0-2.2188 2.2188v4.2344a2.2188 2.2188 0 0 0 2.2188 2.2188h1.0586a2.2188 2.2188 0 0 0 0.5293-0.0645 2.2188 2.2188 0 0 0 0.5293 0.0645h1.0586a2.2188 2.2188 0 0 0 0.26758-0.0156 2.2188 2.2188 0 0 0 0.26172 0.0156h1.0586a2.2188 2.2188 0 0 0 0.26758-0.0156 2.2188 2.2188 0 0 0 0.26172 0.0156h3.1738a2.2188 2.2188 0 0 0 0.26758-0.0156 2.2188 2.2188 0 0 0 0.26172 0.0156h3.1758a2.2188 2.2188 0 0 0 0.26758-0.0156 2.2188 2.2188 0 0 0 0.26172 0.0156h1.0586a2.2188 2.2188 0 0 0 2.2188-2.2188v-1.0586a2.2188 2.2188 0 0 0-0.06445-0.52929 2.2188 2.2188 0 0 0 0.06445-0.5293v-4.2324a2.2188 2.2188 0 0 0-2.2188-2.2188zm-2.2188 6.3184v0.13281a2.2188 2.2188 0 0 0 0.0059 0.14648 2.2188 2.2188 0 0 0-0.07227-0.14453 2.2188 2.2188 0 0 0 0.06641-0.13476z" fill="#1a202c" style="paint-order:stroke fill markers"/>
  </g>
  <text x="4.4979143" y="282.41486" font-family="sans-serif" font-size="10.583px" letter-spacing="0px" stroke-linejoin="round" stroke-opacity=".29255" stroke-width=".4" word-spacing="0px" style="line-height:1.25;paint-order:stroke fill markers" xml:space="preserve"><tspan x="4.4979143" y="282.41486" fill="#fafafa" font-family="'square deal'" font-size="8.4667px" stroke-linejoin="round" stroke-opacity=".29255" stroke-width=".4" style="paint-order:stroke fill markers">NICE!</tspan></text>
 </g>
</svg>
